<?xml version="1.0" encoding="UTF-8"?>
<svg width="110px" height="34px" viewBox="0 0 110 34" version="1.1" xmlns="http://www.w3.org/2000/svg" xmlns:xlink="http://www.w3.org/1999/xlink">
    <title>logo</title>
    <g id="Page-1" stroke="none" stroke-width="1" fill="none" fill-rule="evenodd">
        <g id="Large-Devices:-Desktops---12-col-Copy-12" transform="translate(-32.000000, -14.000000)" fill="#040858">
            <g id="Group-3" transform="translate(32.000000, 14.000000)">
                <path d="M28.8095238,6.0029409 L28.8095238,0 L0,0 L0,6.0029409 C4.63542328,6.03071605 10.2119577,7.09815893 10.4636772,8.5155687 L10.4761905,8.5155687 L10.4761905,8.61555924 L10.4761905,10.0747779 L10.4761905,10.1107394 L10.4761905,33.8134679 L18.3333333,33.8134679 L18.3333333,10.1107394 L18.3333333,10.0747779 L18.3333333,8.61555924 L18.3333333,8.5155687 L18.3455556,8.5155687 C18.5975661,7.09815893 24.1741005,6.03071605 28.8095238,6.0029409 L28.8095238,6.0029409 Z M102.218519,33.9520513 L102.218519,31.3563904 C100.804524,33.1152884 98.4421429,34 95.7064021,34 C90.5669577,34 87.2171958,30.9160812 87.2171958,25.9823374 C87.2171958,19.9098125 92.3569312,17.2059747 100.065952,17.2059747 C101.534365,17.2059747 102.451905,17.3004102 102.451905,17.3004102 C102.451905,15.6403333 102.451905,14.7863205 101.809656,13.8369951 C101.167407,12.8885468 99.9739947,12.4140303 97.7713757,12.4140303 C93.9170106,12.4140303 90.2459788,13.4428804 90.2459788,13.4428804 L89.8787302,13.4428804 L89.8787302,7.60775984 C89.8787302,7.60775984 93.3201587,6.81602188 98.8268519,6.81602188 C103.370026,6.81602188 106.811455,7.62267071 108.555159,10.1367604 C109.977884,12.1769182 109.977884,14.7386642 109.977884,17.3954304 L109.977884,21.8072938 L110,21.8072938 L110,33.9520513 L102.218519,33.9520513 Z M102.218519,21.8072938 L101.167407,21.8072938 C99.1021429,21.8072938 94.9721958,21.8072938 94.9721958,25.3180728 C94.9721958,27.074047 96.027672,28.3069713 98.1386243,28.3069713 C99.7906614,28.3069713 101.167407,27.5003225 101.809656,26.2197419 C101.981058,25.8779613 102.104153,25.5157149 102.196402,25.152299 L102.218519,25.152299 L102.218519,21.8072938 Z M45.6718254,22.588214 C45.9628307,18.2120198 46.1743915,14.362384 44.275873,11.3249521 C42.3316667,8.24015616 38.8960582,6.7446836 34.7370106,6.7446836 C26.8260317,6.7446836 22.5313757,12.1658082 22.5313757,20.4851966 C22.5313757,24.9251275 23.7518519,28.4306438 26.1025926,30.6739988 C28.1370106,32.5904842 31.1657937,33.8520608 36.1835979,33.8520608 C41.3195503,33.8520608 45.7207143,31.8113182 45.7207143,31.8113182 L43.0801323,25.7446406 L42.7867989,25.7446406 C42.7867989,25.7446406 39.4742857,28.3838646 36.0386772,28.3838646 C32.5178042,28.3838646 30.2165344,26.1872888 30.2165344,22.588214 L45.6718254,22.588214 Z M38.6248413,17.8211212 L30.1714286,17.8211212 C30.3518519,14.362384 31.572619,11.9792761 34.6467989,11.9792761 C37.675582,11.9792761 38.6248413,14.3161896 38.6248413,17.8211212 L38.6248413,17.8211212 Z M78.4657937,12.3140398 C76.1942063,12.3140398 75.2207937,13.1683449 75.2207937,14.2121058 C75.2207937,17.7237619 86.5327513,16.5373245 86.5327513,25.6007946 C86.5327513,31.058173 82.4528571,34 75.2207937,34 C70.5385185,34 67.7477778,31.9931723 66.8447884,31.9931723 C65.9420899,31.9931723 63.2337037,34 59.3380159,34 C53.018254,34 47.1428571,28.8279746 47.1428571,20.3811129 C47.1428571,11.9342511 51.6860317,6.80958974 60.5410317,6.80958974 C63.9248413,6.80958974 66.8447884,7.80481723 66.8447884,7.80481723 L66.2429894,13.6428614 L65.8722487,13.6428614 C65.8722487,13.6428614 63.6469312,12.7885563 61.3287831,12.7885563 C57.0638095,12.7885563 55.3020635,15.6362401 55.3020635,20.4287692 C55.3020635,25.2210059 57.0638095,28.0210334 61.3287831,28.0210334 C63.3314815,28.0210334 66.0421958,26.6854873 66.9152116,26.3399059 L67.0694444,26.3399059 C68.1147354,26.7609187 72.5953439,28.4958423 75.406455,28.4958423 C77.770582,28.4958423 78.7902646,27.6415372 78.7902646,26.4074434 C78.7902646,22.279179 67.4788889,23.608293 67.4788889,15.0187547 C67.4788889,9.89409327 71.4656614,6.80958974 78.4195238,6.80958974 C82.3600265,6.80958974 85.2811376,7.80598671 85.2811376,7.80598671 L85.2811376,13.6428614 L84.9101058,13.6428614 C84.9101058,13.6428614 81.2475132,12.3140398 78.4657937,12.3140398 L78.4657937,12.3140398 Z" id="logo"></path>
            </g>
        </g>
    </g>
</svg>