<?xml version="1.0" encoding="UTF-8"?>
<svg width="29px" height="29px" viewBox="0 0 29 29" version="1.1" xmlns="http://www.w3.org/2000/svg" xmlns:xlink="http://www.w3.org/1999/xlink">
    <title>search</title>
    <g id="Page-1" stroke="none" stroke-width="1" fill="none" fill-rule="evenodd">
        <g id="Large-Devices:-Desktops---12-col-Copy-12" transform="translate(-897.000000, -18.000000)" fill="#040858">
            <g id="Icons/Action/ic_search" transform="translate(893.000000, 14.000000)">
                <path d="M24.5416667,22.1666667 L23.2908333,22.1666667 L22.8475,21.7391667 C24.3991667,19.9341667 25.3333333,17.5908333 25.3333333,15.0416667 C25.3333333,9.3575 20.7258333,4.75 15.0416667,4.75 C9.3575,4.75 4.75,9.3575 4.75,15.0416667 C4.75,20.7258333 9.3575,25.3333333 15.0416667,25.3333333 C17.5908333,25.3333333 19.9341667,24.3991667 21.7391667,22.8475 L22.1666667,23.2908333 L22.1666667,24.5416667 L30.0833333,32.4425 L32.4425,30.0833333 L24.5416667,22.1666667 L24.5416667,22.1666667 Z M15.0416667,22.1666667 C11.0991667,22.1666667 7.91666667,18.9841667 7.91666667,15.0416667 C7.91666667,11.0991667 11.0991667,7.91666667 15.0416667,7.91666667 C18.9841667,7.91666667 22.1666667,11.0991667 22.1666667,15.0416667 C22.1666667,18.9841667 18.9841667,22.1666667 15.0416667,22.1666667 L15.0416667,22.1666667 Z" id="search"></path>
            </g>
        </g>
    </g>
</svg>