<svg width="41" height="35" fill="none" xmlns="http://www.w3.org/2000/svg"><path fill-rule="evenodd" clip-rule="evenodd" d="M29.835 13.125L21.987 1.372C21.647.87 21.073.619 20.5.619c-.573 0-1.147.251-1.487.77l-7.848 11.736H2.583c-.985 0-1.791.806-1.791 1.792 0 .16.018.322.071.483l4.551 16.61a3.563 3.563 0 003.44 2.615h23.292a3.6 3.6 0 003.458-2.616l4.55-16.609.054-.483c0-.986-.806-1.792-1.791-1.792h-8.582zm-14.71 0L20.5 5.242l5.375 7.883h-10.75zM20.5 27.458a3.594 3.594 0 01-3.583-3.583 3.594 3.594 0 013.583-3.583 3.594 3.594 0 013.583 3.583 3.594 3.594 0 01-3.583 3.583z" fill="#040858"/></svg>