<svg width="38" height="32" fill="none" xmlns="http://www.w3.org/2000/svg"><path fill-rule="evenodd" clip-rule="evenodd" d="M36.911 19.29S30.745 6.36 29.944 4.244C29.18 2.224 28.195.335 26.036.335a3.89 3.89 0 00-3.908 3.909c-.066.618-.21 2.593-.378 4.433h-5.501c-.21-2.233-.366-4.333-.375-4.433-.19-2.194-1.065-3.91-3.908-3.91-2.159 0-3.05 1.929-3.908 3.908-.69 1.583-7.12 15.34-7.12 15.34h.014a8.596 8.596 0 0011.132 11.363 8.595 8.595 0 005.353-7.943c0-.264-.015-1.537-.04-1.794h3.205c-.023.258-.04 1.531-.04 1.794a8.595 8.595 0 1016.35-3.712zM8.835 28.633a5.628 5.628 0 11.001-11.257 5.628 5.628 0 010 11.257zm15.126-3.47a5.629 5.629 0 1110.825-2.159 5.635 5.635 0 01-5.62 5.629 5.628 5.628 0 01-5.205-3.47z" fill="#040858"/></svg>