<?xml version="1.0" encoding="UTF-8"?><!DOCTYPE svg PUBLIC "-//W3C//DTD SVG 1.1//EN" "http://www.w3.org/Graphics/SVG/1.1/DTD/svg11.dtd"><svg xmlns="http://www.w3.org/2000/svg" xmlns:xlink="http://www.w3.org/1999/xlink"><symbol id="ico-mono-email" viewBox="0 0 49 35">
    <g fill-rule="evenodd">
        <path d="M44.49 0c2.338 0 4.13 1.781 4.13 3.813v1.272l-5.402 3.813-19.067 13.029L5.402 8.897v26.059h-1.27C1.791 34.956 0 33.175 0 31.143V3.813C0 1.783 1.793.001 4.131 0l20.02 14.936L44.49 0z" fill-rule="nonzero"/>
        <path d="M48.62 5.085v26.058c-.092 2.737-1.316 3.765-5.402 3.813V8.898l5.403-3.813z" fill-rule="nonzero"/>
        <path d="M3.813 0h40.765v5.461H3.813z"/>
        <path d="M4.767 29.554h38.451v5.402H4.767z"/>
    </g>
</symbol><symbol id="ico-mono-logo" viewBox="0 0 110 34">
    <path d="M28.81 6.003V0H0v6.003c4.635.028 10.212 1.095 10.464 2.513h.012v25.297h7.857V8.515h.013c.252-1.417 5.828-2.484 10.464-2.512zm73.409 27.95v-2.597C100.805 33.116 98.442 34 95.706 34c-5.139 0-8.489-3.084-8.489-8.018 0-6.072 5.14-8.776 12.849-8.776 1.468 0 2.386.094 2.386.094 0-1.66 0-2.514-.642-3.463-.643-.948-1.836-1.423-4.039-1.423-3.854 0-7.525 1.029-7.525 1.029h-.367V7.608s3.441-.792 8.948-.792c4.543 0 7.984.807 9.728 3.32 1.423 2.04 1.423 4.603 1.423 7.26v4.411H110v12.145h-7.781zm0-12.146h-1.052c-2.065 0-6.195 0-6.195 3.511 0 1.756 1.056 2.989 3.167 2.989 1.652 0 3.028-.807 3.67-2.087.172-.342.295-.704.387-1.068h.023v-3.345zm-56.547.781c.29-4.376.502-8.226-1.396-11.263-1.944-3.085-5.38-4.58-9.539-4.58-7.911 0-12.206 5.42-12.206 13.74 0 4.44 1.22 7.946 3.572 10.189 2.034 1.916 5.063 3.178 10.08 3.178 5.137 0 9.538-2.04 9.538-2.04l-2.64-6.067h-.294s-3.313 2.639-6.748 2.639c-3.521 0-5.822-2.197-5.822-5.796h15.455zm-7.047-4.767H30.17c.18-3.459 1.402-5.842 4.476-5.842 3.029 0 3.978 2.337 3.978 5.842zm39.84-5.507c-2.27 0-3.244.854-3.244 1.898 0 3.512 11.312 2.325 11.312 11.389 0 5.457-4.08 8.399-11.312 8.399-4.682 0-7.473-2.007-8.376-2.007-.903 0-3.611 2.007-7.507 2.007-6.32 0-12.195-5.172-12.195-13.619S51.686 6.81 60.54 6.81c3.384 0 6.304.995 6.304.995l-.602 5.838h-.37s-2.226-.854-4.544-.854c-4.265 0-6.027 2.847-6.027 7.64 0 4.792 1.762 7.592 6.027 7.592 2.002 0 4.713-1.336 5.586-1.681h.154c1.046.42 5.526 2.156 8.337 2.156 2.365 0 3.384-.854 3.384-2.089 0-4.128-11.311-2.799-11.311-11.388 0-5.125 3.987-8.21 10.94-8.21 3.941 0 6.862.997 6.862.997v5.837h-.37s-3.663-1.329-6.445-1.329z" fill-rule="evenodd"/>
</symbol><symbol id="ico-mono-search" viewBox="0 0 29 29">
    <path d="M20.542 18.167H19.29l-.444-.428a10.246 10.246 0 002.486-6.697C21.333 5.358 16.726.75 11.042.75S.75 5.357.75 11.042c0 5.684 4.607 10.291 10.292 10.291 2.549 0 4.892-.934 6.697-2.485l.428.443v1.25l7.916 7.902 2.36-2.36-7.901-7.916zm-9.5 0a7.115 7.115 0 01-7.125-7.125 7.115 7.115 0 017.125-7.125 7.115 7.115 0 017.125 7.125 7.115 7.115 0 01-7.125 7.125z" fill-rule="evenodd"/>
</symbol></svg>